<?xml version="1.0" standalone="no"?>
<!DOCTYPE svg PUBLIC "-//W3C//DTD SVG 20010904//EN"
 "http://www.w3.org/TR/2001/REC-SVG-20010904/DTD/svg10.dtd">
<svg version="1.0" xmlns="http://www.w3.org/2000/svg"
 width="300.000000pt" height="301.000000pt" viewBox="0 0 300.000000 301.000000"
 preserveAspectRatio="xMidYMid meet">
<metadata>
Created by potrace 1.10, written by Peter Selinger 2001-2011
</metadata>
<g transform="translate(0.000000,301.000000) scale(0.100000,-0.100000)"
fill="#000000" stroke="none">
<path d="M743 3003 c412 -2 1082 -2 1490 0 408 1 72 2 -748 2 -820 0 -1153 -1
-742 -2z"/>
<path d="M1168 2923 c6 -2 18 -2 25 0 6 3 1 5 -13 5 -14 0 -19 -2 -12 -5z"/>
<path d="M2991 2804 c0 -11 3 -14 6 -6 3 7 2 16 -1 19 -3 4 -6 -2 -5 -13z"/>
<path d="M2988 2058 c-2 -392 -1 -978 2 -1303 4 -436 6 -250 8 713 1 716 0
1302 -3 1302 -3 0 -6 -321 -7 -712z"/>
<path d="M2190 2690 c-9 -6 -10 -10 -3 -10 6 0 15 5 18 10 8 12 4 12 -15 0z"/>
<path d="M2188 2623 c7 -3 16 -2 19 1 4 3 -2 6 -13 5 -11 0 -14 -3 -6 -6z"/>
<path d="M2536 2335 c-3 -8 -1 -15 4 -15 6 0 10 7 10 15 0 8 -2 15 -4 15 -2 0
-6 -7 -10 -15z"/>
<path d="M2478 2323 c7 -3 16 -2 19 1 4 3 -2 6 -13 5 -11 0 -14 -3 -6 -6z"/>
<path d="M592 2168 c-9 -9 -12 -128 -12 -474 0 -407 2 -464 16 -478 13 -14 62
-16 380 -16 l364 0 0 -137 c0 -152 7 -175 66 -214 27 -18 51 -19 350 -19 l322
1 -4 22 c-2 12 -2 16 2 9 3 -6 10 -10 15 -6 5 3 9 -2 9 -10 0 -16 18 -31 27
-22 3 3 0 13 -7 21 -10 11 -10 19 -2 27 14 14 46 2 36 -14 -6 -9 -9 -9 -12 0
-2 7 -8 10 -13 7 -5 -4 -3 -12 4 -20 8 -9 16 -10 25 -3 8 7 12 7 12 -1 0 -7
38 -11 120 -11 104 0 121 2 129 18 6 11 6 24 0 35 -14 24 -184 26 -193 2 -3
-8 -11 -15 -17 -15 -8 0 -8 4 1 15 11 13 8 15 -20 15 -31 0 -32 -1 -17 -18 19
-20 22 -32 9 -32 -5 0 -15 11 -22 25 l-13 25 -344 0 -344 0 -24 25 -25 24 0
391 0 390 500 0 c498 0 499 0 511 21 9 17 8 25 -5 37 -14 14 -73 16 -510 16
-471 1 -495 2 -515 20 -26 24 -27 50 -1 76 15 15 33 20 78 20 78 0 119 28 143
98 16 47 -10 114 -55 142 -32 19 -48 20 -493 20 -344 0 -462 -3 -471 -12z
m932 -18 c47 -18 66 -49 62 -103 -5 -73 -35 -98 -124 -106 -76 -7 -99 -22
-108 -70 -5 -25 -1 -36 25 -61 30 -31 32 -31 123 -30 243 3 298 1 298 -15 0
-12 -27 -14 -190 -11 -165 3 -191 1 -204 -13 -12 -14 -15 -72 -16 -351 -2
-501 -7 -445 40 -491 26 -25 40 -34 40 -24 0 8 7 15 15 15 9 0 12 -6 8 -17 -5
-12 -2 -15 10 -10 11 4 17 1 17 -8 0 -8 -7 -15 -15 -15 -8 0 -15 5 -15 11 0 6
-7 8 -16 5 -21 -8 -76 19 -94 46 -15 23 -31 178 -18 178 4 0 3 12 -1 28 -4 15
-6 41 -6 57 1 17 -5 38 -13 48 -14 16 -42 17 -371 15 l-356 -2 -7 53 c-5 42
-4 868 1 878 4 8 895 1 915 -7z m316 -369 c0 -12 -20 -25 -27 -18 -7 7 6 27
18 27 5 0 9 -4 9 -9z m557 -15 c-5 -15 -506 -19 -524 -4 -10 8 -13 6 -13 -6 0
-9 -7 -16 -15 -16 -13 0 -13 3 3 20 17 18 34 20 253 22 260 3 302 1 296 -16z
m-337 -895 c0 -19 -39 -21 -280 -21 -203 1 -247 4 -247 15 0 11 46 14 264 15
153 0 263 -3 263 -9z m340 -7 c0 -11 -20 -14 -92 -14 -85 1 -91 2 -73 15 26
21 165 19 165 -1z"/>
<path d="M649 2114 c-11 -13 -14 -98 -16 -424 -2 -362 -1 -409 13 -421 13 -10
89 -13 353 -14 287 0 338 2 348 15 9 11 12 82 13 255 0 223 -2 242 -20 273
-29 47 -26 95 8 133 24 27 36 32 102 39 58 6 78 13 92 30 23 29 23 72 -1 101
l-19 24 -430 2 c-388 3 -431 1 -443 -13z m869 -20 c30 -20 30 -68 0 -88 -14
-10 -44 -16 -81 -16 -56 0 -62 -3 -98 -39 -33 -33 -39 -45 -39 -82 0 -26 8
-57 20 -77 19 -30 20 -50 20 -272 l0 -240 -342 0 -343 0 0 415 0 415 420 0
c364 0 424 -2 443 -16z"/>
<path d="M695 2030 c-1 -40 -1 -40 37 -40 38 0 38 0 38 40 0 40 0 40 -37 40
-37 0 -38 -1 -38 -40z m55 0 c0 -5 -7 -10 -15 -10 -8 0 -15 5 -15 10 0 6 7 10
15 10 8 0 15 -4 15 -10z"/>
<path d="M810 2030 c0 -39 1 -40 35 -40 34 0 35 1 35 40 0 39 -1 40 -35 40
-34 0 -35 -1 -35 -40z m45 20 c-3 -5 -11 -10 -16 -10 -6 0 -7 5 -4 10 3 6 11
10 16 10 6 0 7 -4 4 -10z"/>
<path d="M920 2030 c0 -40 0 -40 40 -40 40 0 40 0 40 40 0 40 0 40 -40 40 -40
0 -40 0 -40 -40z m50 0 c0 -5 -4 -10 -10 -10 -5 0 -10 5 -10 10 0 6 5 10 10
10 6 0 10 -4 10 -10z"/>
<path d="M1030 2030 c0 -40 0 -40 40 -40 40 0 40 0 40 40 0 40 0 40 -40 40
-40 0 -40 0 -40 -40z m50 -1 c0 -5 -4 -9 -10 -9 -5 0 -10 7 -10 16 0 8 5 12
10 9 6 -3 10 -10 10 -16z"/>
<path d="M1150 2030 c0 -39 1 -40 35 -40 34 0 35 1 35 40 0 39 -1 40 -35 40
-34 0 -35 -1 -35 -40z m45 0 c3 -5 -1 -10 -9 -10 -9 0 -16 5 -16 10 0 6 4 10
9 10 6 0 13 -4 16 -10z"/>
<path d="M1260 2029 c0 -40 0 -40 36 -37 34 3 37 5 39 41 2 37 2 37 -37 37
-38 0 -38 0 -38 -41z m50 1 c0 -5 -4 -10 -10 -10 -5 0 -10 5 -10 10 0 6 5 10
10 10 6 0 10 -4 10 -10z"/>
<path d="M696 1354 c1 -35 3 -37 38 -38 35 -1 36 0 36 37 0 36 -1 37 -37 37
-37 0 -38 -1 -37 -36z m43 -13 c-15 -5 -22 6 -14 19 6 9 10 9 16 -1 5 -8 4
-15 -2 -18z"/>
<path d="M810 1353 c0 -37 1 -38 35 -38 34 0 35 1 35 38 0 36 -1 37 -35 37
-34 0 -35 -1 -35 -37z m40 -3 c0 -5 -4 -10 -10 -10 -5 0 -10 5 -10 10 0 6 5
10 10 10 6 0 10 -4 10 -10z"/>
<path d="M920 1353 c0 -37 1 -38 37 -37 36 1 38 3 41 37 l3 37 -40 0 c-41 0
-41 0 -41 -37z m46 -10 c-10 -10 -19 5 -10 18 6 11 8 11 12 0 2 -7 1 -15 -2
-18z"/>
<path d="M1032 1353 c3 -34 5 -36 41 -37 36 -1 37 0 37 37 0 37 0 37 -41 37
l-40 0 3 -37z m44 -10 c-10 -10 -19 5 -10 18 6 11 8 11 12 0 2 -7 1 -15 -2
-18z"/>
<path d="M1150 1353 c0 -37 1 -38 35 -38 34 0 35 1 35 38 0 36 -1 37 -35 37
-34 0 -35 -1 -35 -37z m48 -1 c2 -7 -3 -12 -12 -12 -9 0 -16 7 -16 16 0 17 22
14 28 -4z"/>
<path d="M186 2085 c4 -8 8 -15 10 -15 2 0 4 7 4 15 0 8 -4 15 -10 15 -5 0 -7
-7 -4 -15z"/>
<path d="M2471 1778 c1 -16 3 -18 6 -6 2 10 17 18 36 21 31 4 31 4 -5 5 -34 2
-38 -1 -37 -20z"/>
<path d="M2505 1730 l-40 -7 43 -2 c23 0 42 4 42 9 0 6 -1 9 -2 9 -2 -1 -21
-5 -43 -9z"/>
<path d="M1450 1655 c0 -33 2 -35 35 -35 33 0 35 2 35 35 0 33 -2 35 -35 35
-33 0 -35 -2 -35 -35z m48 -3 c2 -7 -3 -12 -12 -12 -9 0 -16 7 -16 16 0 17 22
14 28 -4z"/>
<path d="M1560 1655 c0 -34 1 -35 38 -35 37 0 39 1 40 35 1 34 1 35 -38 35
-39 0 -40 -1 -40 -35z m50 0 c0 -8 -4 -15 -9 -15 -13 0 -22 16 -14 24 11 11
23 6 23 -9z"/>
<path d="M1670 1655 c0 -34 1 -35 40 -35 39 0 40 1 40 35 0 34 -1 35 -40 35
-39 0 -40 -1 -40 -35z m57 2 c0 -8 -6 -14 -14 -14 -7 0 -13 6 -13 14 0 7 6 13
13 13 8 0 14 -6 14 -13z"/>
<path d="M1790 1655 c0 -33 2 -35 35 -35 33 0 35 2 35 35 0 33 -2 35 -35 35
-33 0 -35 -2 -35 -35z m36 -12 c-10 -10 -19 5 -10 18 6 11 8 11 12 0 2 -7 1
-15 -2 -18z"/>
<path d="M1900 1655 c0 -34 1 -35 38 -35 36 0 37 1 37 35 0 34 -1 35 -37 35
-37 0 -38 -1 -38 -35z m50 0 c0 -8 -7 -15 -15 -15 -9 0 -12 6 -9 15 4 8 10 15
15 15 5 0 9 -7 9 -15z"/>
<path d="M2010 1655 c0 -34 1 -35 40 -35 39 0 40 1 40 35 0 34 -1 35 -40 35
-39 0 -40 -1 -40 -35z m50 0 c0 -8 -7 -15 -15 -15 -9 0 -12 6 -9 15 4 8 10 15
15 15 5 0 9 -7 9 -15z"/>
<path d="M2124 1655 c0 -34 1 -35 38 -35 37 0 38 1 38 35 0 34 -1 35 -38 35
-37 0 -38 -1 -38 -35z m54 -3 c2 -7 -3 -12 -12 -12 -9 0 -16 7 -16 16 0 17 22
14 28 -4z"/>
<path d="M2240 1655 c0 -33 2 -35 35 -35 33 0 35 2 35 35 0 33 -2 35 -35 35
-33 0 -35 -2 -35 -35z m44 -1 c4 -10 1 -14 -6 -12 -15 5 -23 28 -10 28 5 0 13
-7 16 -16z"/>
<path d="M2023 1520 c-38 -23 -57 -77 -42 -117 5 -14 8 -27 7 -27 -39 -24 -57
-22 -183 21 -71 23 -137 40 -147 37 -21 -6 -24 -47 -5 -61 6 -5 46 -20 87 -33
l75 -23 -75 -26 c-91 -31 -100 -37 -100 -60 0 -45 23 -45 162 2 108 37 137 43
160 35 15 -6 28 -11 28 -12 0 -2 -5 -17 -11 -34 -8 -25 -7 -38 7 -67 51 -109
214 -70 214 52 0 38 -56 88 -110 98 l-45 8 52 16 c74 23 98 50 97 108 -1 39
-6 51 -33 75 -38 34 -91 37 -138 8z m107 -10 c12 -7 17 -17 13 -32 -5 -23 -5
-23 10 -3 8 11 18 17 22 14 3 -4 -1 -14 -10 -23 -15 -14 -19 -14 -46 6 -28 21
-32 21 -57 7 -47 -26 -38 -76 16 -93 17 -6 29 -1 51 23 20 22 31 27 39 19 19
-19 -6 -48 -63 -73 -29 -13 -56 -28 -59 -34 -8 -12 32 -41 56 -41 33 0 70 -43
71 -82 2 -64 -52 -100 -117 -78 -42 13 -60 48 -54 98 7 50 0 61 -43 68 -34 6
-72 -3 -216 -47 -40 -13 -76 -20 -80 -15 -10 10 12 22 84 46 57 20 84 44 66
60 -8 6 -51 24 -121 50 -22 9 -30 16 -23 23 7 7 32 3 78 -11 205 -64 189 -61
225 -43 30 15 33 20 30 55 -5 57 5 84 36 100 32 18 66 20 92 6z m-16 -55 c18
-19 11 -42 -15 -50 -36 -12 -63 27 -37 53 16 16 33 15 52 -3z"/>
<path d="M2050 1230 c-25 -25 -25 -41 0 -68 24 -25 30 -26 64 -11 35 16 39 55
8 79 -31 25 -47 25 -72 0z m64 -15 c29 -29 -7 -65 -45 -45 -22 12 -25 30 -7
48 16 16 33 15 52 -3z"/>
<path d="M1470 1489 c0 -5 5 -7 10 -4 6 3 10 8 10 11 0 2 -4 4 -10 4 -5 0 -10
-5 -10 -11z"/>
<path d="M1530 1467 c0 -20 4 -37 10 -37 5 0 7 14 3 33 -8 45 -13 47 -13 4z"/>
<path d="M1477 1453 c-13 -12 -7 -23 11 -22 10 0 12 3 4 6 -6 2 -10 9 -6 14 6
10 0 12 -9 2z"/>
<path d="M461 1193 c0 -11 3 -13 6 -5 7 19 51 15 56 -5 4 -14 5 -12 6 5 1 19
-4 22 -34 22 -27 0 -35 -4 -34 -17z"/>
<path d="M460 1150 c0 -11 4 -20 9 -20 5 0 7 9 4 20 -3 11 -7 20 -9 20 -2 0
-4 -9 -4 -20z"/>
<path d="M1824 1013 c-28 -4 -32 -9 -36 -39 -4 -33 -3 -34 34 -34 38 0 38 0
38 40 0 22 -1 39 -2 38 -2 0 -17 -3 -34 -5z m6 -38 c0 -8 -4 -15 -10 -15 -5 0
-10 7 -10 15 0 8 5 15 10 15 6 0 10 -7 10 -15z"/>
<path d="M1900 978 c0 -37 1 -38 38 -38 36 0 37 1 37 34 0 32 -2 35 -37 38
-38 4 -38 3 -38 -34z m50 -3 c0 -8 -4 -15 -10 -15 -5 0 -10 7 -10 15 0 8 5 15
10 15 6 0 10 -7 10 -15z"/>
<path d="M2160 1011 c-32 -5 -35 -9 -35 -38 0 -31 2 -33 37 -33 38 0 38 0 38
40 0 22 -1 39 -2 39 -2 -1 -19 -5 -38 -8z m14 -36 c3 -9 0 -15 -9 -15 -8 0
-15 7 -15 15 0 8 4 15 9 15 5 0 11 -7 15 -15z"/>
<path d="M1450 975 c0 -33 2 -35 35 -35 33 0 35 2 35 35 0 33 -2 35 -35 35
-33 0 -35 -2 -35 -35z m48 4 c-2 -6 -8 -10 -13 -10 -5 0 -11 4 -13 10 -2 6 4
11 13 11 9 0 15 -5 13 -11z"/>
<path d="M1560 975 c0 -34 1 -35 40 -35 39 0 39 1 38 35 -1 34 -3 35 -40 35
-37 0 -38 -1 -38 -35z m50 0 c0 -8 -4 -15 -9 -15 -13 0 -22 16 -14 24 11 11
23 6 23 -9z"/>
<path d="M1670 975 c0 -34 1 -35 40 -35 39 0 40 1 40 35 0 34 -1 35 -40 35
-39 0 -40 -1 -40 -35z m54 0 c3 -9 0 -15 -9 -15 -8 0 -15 7 -15 15 0 8 4 15 9
15 5 0 11 -7 15 -15z"/>
<path d="M2010 975 c0 -34 1 -35 40 -35 39 0 40 1 40 35 0 34 -1 35 -40 35
-39 0 -40 -1 -40 -35z m50 0 c0 -8 -4 -15 -9 -15 -13 0 -22 16 -14 24 11 11
23 6 23 -9z"/>
<path d="M2240 974 c0 -31 3 -35 23 -32 12 2 21 9 20 16 -2 6 2 12 7 12 6 0
10 -7 10 -17 0 -9 3 -14 6 -10 3 3 0 20 -7 36 -10 21 -21 31 -36 31 -20 0 -23
-5 -23 -36z m24 -9 c-4 -8 -8 -15 -10 -15 -2 0 -4 7 -4 15 0 8 4 15 10 15 5 0
7 -7 4 -15z"/>
<path d="M2802 890 c0 -14 2 -19 5 -12 2 6 2 18 0 25 -3 6 -5 1 -5 -13z"/>
<path d="M2865 840 c-3 -5 -1 -10 4 -10 6 0 11 5 11 10 0 6 -2 10 -4 10 -3 0
-8 -4 -11 -10z"/>
<path d="M505 610 c3 -5 8 -10 11 -10 2 0 4 5 4 10 0 6 -5 10 -11 10 -5 0 -7
-4 -4 -10z"/>
<path d="M1120 606 c0 -9 5 -16 10 -16 6 0 10 4 10 9 0 6 -4 13 -10 16 -5 3
-10 -1 -10 -9z"/>
<path d="M1178 603 c7 -3 16 -2 19 1 4 3 -2 6 -13 5 -11 0 -14 -3 -6 -6z"/>
<path d="M450 565 c0 -14 7 -21 22 -22 16 -2 19 0 9 6 -7 5 -17 15 -22 22 -7
11 -9 9 -9 -6z"/>
<path d="M1130 560 c0 -11 4 -20 9 -20 5 0 7 9 4 20 -3 11 -7 20 -9 20 -2 0
-4 -9 -4 -20z"/>
<path d="M516 555 c-3 -8 -1 -15 4 -15 6 0 10 7 10 15 0 8 -2 15 -4 15 -2 0
-6 -7 -10 -15z"/>
<path d="M1182 551 c-11 -6 -10 -10 4 -15 20 -8 32 0 18 14 -5 5 -15 5 -22 1z"/>
<path d="M2132 290 c0 -14 2 -19 5 -12 2 6 2 18 0 25 -3 6 -5 1 -5 -13z"/>
<path d="M1522 260 c-10 -17 -10 -20 3 -20 8 0 15 9 15 20 0 11 -1 20 -3 20
-1 0 -8 -9 -15 -20z"/>
<path d="M1460 250 c0 -5 5 -10 10 -10 6 0 10 5 10 10 0 6 -4 10 -10 10 -5 0
-10 -4 -10 -10z"/>
<path d="M2131 244 c0 -11 3 -14 6 -6 3 7 2 16 -1 19 -3 4 -6 -2 -5 -13z"/>
<path d="M2185 250 c-3 -5 -1 -10 4 -10 6 0 11 5 11 10 0 6 -2 10 -4 10 -3 0
-8 -4 -11 -10z"/>
<path d="M2992 130 c0 -19 2 -27 5 -17 2 9 2 25 0 35 -3 9 -5 1 -5 -18z"/>
<path d="M2991 54 c0 -11 3 -14 6 -6 3 7 2 16 -1 19 -3 4 -6 -2 -5 -13z"/>
<path d="M1123 8 c-2 -5 182 -7 409 -6 227 1 391 3 363 5 -116 7 -767 7 -772
1z"/>
<path d="M258 3 c7 -3 16 -2 19 1 4 3 -2 6 -13 5 -11 0 -14 -3 -6 -6z"/>
<path d="M408 3 c7 -3 16 -2 19 1 4 3 -2 6 -13 5 -11 0 -14 -3 -6 -6z"/>
<path d="M498 3 c7 -3 16 -2 19 1 4 3 -2 6 -13 5 -11 0 -14 -3 -6 -6z"/>
<path d="M663 3 c76 -2 198 -2 270 0 73 1 11 3 -138 3 -148 0 -208 -2 -132 -3z"/>
<path d="M2108 3 c89 -2 235 -2 325 0 89 1 16 3 -163 3 -179 0 -252 -2 -162
-3z"/>
<path d="M2738 3 c7 -3 16 -2 19 1 4 3 -2 6 -13 5 -11 0 -14 -3 -6 -6z"/>
</g>
</svg>
